<mxfile host="app.diagrams.net" agent="Mozilla/5.0 (Macintosh; Intel Mac OS X 10_15_7) AppleWebKit/537.36 (KHTML, like Gecko) Chrome/130.0.0.0 Safari/537.36" version="24.8.3">
  <diagram name="Страница 1" id="mt56Luzs4vUoFwmHMjQ6">
    <mxGraphModel dx="1060" dy="710" grid="1" gridSize="10" guides="1" tooltips="1" connect="1" arrows="1" fold="1" page="1" pageScale="1" pageWidth="827" pageHeight="1169" math="0" shadow="0">
      <root>
        <mxCell id="0" />
        <mxCell id="1" parent="0" />
        <mxCell id="NJP2n7XifbznAyrkBJwa-1" value="" style="shape=cylinder3;whiteSpace=wrap;html=1;boundedLbl=1;backgroundOutline=1;size=15;" parent="1" vertex="1">
          <mxGeometry x="650" y="215" width="140" height="190" as="geometry" />
        </mxCell>
        <mxCell id="NJP2n7XifbznAyrkBJwa-2" value="" style="rounded=1;whiteSpace=wrap;html=1;rotation=90;" parent="1" vertex="1">
          <mxGeometry x="80.00000000000001" y="260" width="200" height="100" as="geometry" />
        </mxCell>
        <mxCell id="NJP2n7XifbznAyrkBJwa-3" value="" style="ellipse;whiteSpace=wrap;html=1;aspect=fixed;" parent="1" vertex="1">
          <mxGeometry x="167.67000000000002" y="380.34" width="24.66" height="24.66" as="geometry" />
        </mxCell>
        <mxCell id="NJP2n7XifbznAyrkBJwa-4" value="" style="rounded=1;whiteSpace=wrap;html=1;" parent="1" vertex="1">
          <mxGeometry x="350" y="207.67000000000002" width="190" height="204.66" as="geometry" />
        </mxCell>
        <mxCell id="NJP2n7XifbznAyrkBJwa-5" value="A" style="text;html=1;strokeColor=none;fillColor=none;align=center;verticalAlign=middle;whiteSpace=wrap;rounded=0;fontStyle=1;fontSize=22;" parent="1" vertex="1">
          <mxGeometry x="150" y="160" width="60" height="30" as="geometry" />
        </mxCell>
        <mxCell id="NJP2n7XifbznAyrkBJwa-6" value="B" style="text;html=1;strokeColor=none;fillColor=none;align=center;verticalAlign=middle;whiteSpace=wrap;rounded=0;fontStyle=1;fontSize=22;" parent="1" vertex="1">
          <mxGeometry x="405" y="160" width="60" height="30" as="geometry" />
        </mxCell>
        <mxCell id="NJP2n7XifbznAyrkBJwa-7" value="C" style="text;html=1;strokeColor=none;fillColor=none;align=center;verticalAlign=middle;whiteSpace=wrap;rounded=0;fontStyle=1;fontSize=22;" parent="1" vertex="1">
          <mxGeometry x="660" y="160" width="60" height="30" as="geometry" />
        </mxCell>
        <mxCell id="NJP2n7XifbznAyrkBJwa-9" value="" style="shape=flexArrow;endArrow=classic;startArrow=classic;html=1;rounded=0;fontSize=22;exitX=0.5;exitY=0;exitDx=0;exitDy=0;entryX=0;entryY=0.5;entryDx=0;entryDy=0;" parent="1" source="NJP2n7XifbznAyrkBJwa-2" edge="1" target="NJP2n7XifbznAyrkBJwa-4">
          <mxGeometry width="100" height="100" relative="1" as="geometry">
            <mxPoint x="230" y="310" as="sourcePoint" />
            <mxPoint x="340" y="310" as="targetPoint" />
          </mxGeometry>
        </mxCell>
        <mxCell id="NJP2n7XifbznAyrkBJwa-10" value="" style="shape=flexArrow;endArrow=classic;startArrow=classic;html=1;rounded=0;fontSize=22;entryX=0;entryY=0.5;entryDx=0;entryDy=0;entryPerimeter=0;exitX=1;exitY=0.5;exitDx=0;exitDy=0;" parent="1" source="NJP2n7XifbznAyrkBJwa-4" target="NJP2n7XifbznAyrkBJwa-1" edge="1">
          <mxGeometry width="100" height="100" relative="1" as="geometry">
            <mxPoint x="400" y="390" as="sourcePoint" />
            <mxPoint x="500" y="290" as="targetPoint" />
          </mxGeometry>
        </mxCell>
        <mxCell id="NJP2n7XifbznAyrkBJwa-11" value="&lt;b&gt;1&lt;/b&gt;" style="text;html=1;strokeColor=none;fillColor=none;align=center;verticalAlign=middle;whiteSpace=wrap;rounded=0;fontSize=22;" parent="1" vertex="1">
          <mxGeometry x="265" y="270" width="60" height="30" as="geometry" />
        </mxCell>
        <mxCell id="NJP2n7XifbznAyrkBJwa-12" value="&lt;b&gt;2&lt;/b&gt;" style="text;html=1;strokeColor=none;fillColor=none;align=center;verticalAlign=middle;whiteSpace=wrap;rounded=0;fontSize=22;" parent="1" vertex="1">
          <mxGeometry x="570" y="270" width="60" height="30" as="geometry" />
        </mxCell>
        <mxCell id="NJP2n7XifbznAyrkBJwa-13" value="A- Мобильное приложение&lt;br style=&quot;font-size: 20px;&quot;&gt;B- Сервер&lt;br style=&quot;font-size: 20px;&quot;&gt;C- PostgreSQL" style="text;html=1;strokeColor=none;fillColor=none;align=left;verticalAlign=middle;whiteSpace=wrap;rounded=0;fontSize=20;" parent="1" vertex="1">
          <mxGeometry x="130" y="470" width="440" height="100" as="geometry" />
        </mxCell>
        <mxCell id="NJP2n7XifbznAyrkBJwa-14" value="PG" style="text;html=1;strokeColor=none;fillColor=none;align=center;verticalAlign=middle;whiteSpace=wrap;rounded=0;fontSize=22;fontStyle=1" parent="1" vertex="1">
          <mxGeometry x="690" y="300" width="60" height="30" as="geometry" />
        </mxCell>
        <mxCell id="NJP2n7XifbznAyrkBJwa-15" value="1- http/https&lt;br style=&quot;font-size: 20px;&quot;&gt;2-&amp;nbsp;&lt;span style=&quot;color: rgb(12, 13, 14); font-family: -apple-system, &amp;quot;system-ui&amp;quot;, &amp;quot;Segoe UI Adjusted&amp;quot;, &amp;quot;Segoe UI&amp;quot;, &amp;quot;Liberation Sans&amp;quot;, sans-serif; font-size: 20px; background-color: rgb(255, 255, 255);&quot;&gt;PostgreSQL protocol (TCP/IP)&lt;/span&gt;" style="text;html=1;strokeColor=none;fillColor=none;align=left;verticalAlign=middle;whiteSpace=wrap;rounded=0;fontSize=20;" parent="1" vertex="1">
          <mxGeometry x="130" y="600" width="390" height="50" as="geometry" />
        </mxCell>
      </root>
    </mxGraphModel>
  </diagram>
</mxfile>
